<?xml version="1.0" encoding="utf-8"?>
<!-- Generator: Adobe Illustrator 27.5.0, SVG Export Plug-In . SVG Version: 6.00 Build 0)  -->
<svg version="1.1" id="cerrar" xmlns="http://www.w3.org/2000/svg" xmlns:xlink="http://www.w3.org/1999/xlink" x="0px" y="0px"
	 viewBox="0 0 40.9 40.9" style="enable-background:new 0 0 40.9 40.9;" xml:space="preserve">
<style type="text/css">
	.st0{opacity:0.74;fill:#FFFFFF;enable-background:new    ;}
</style>
<circle class="st0" cx="20.5" cy="20.5" r="20.5"/>
<path d="M11.3,9.6c4.4,2.1,8,5.3,11.3,8.7c3.3,3.5,6.4,7.1,8.7,11.3l-1.5,1.5c-2.2-1.2-4.1-2.5-6-4c-5.5-4.5-10.8-9.5-14-16
	L11.3,9.6L11.3,9.6L11.3,9.6z"/>
<path d="M31.3,11.3c-2.1,4.4-5.3,8-8.7,11.3c-3.5,3.3-7.1,6.4-11.3,8.7l-1.6-1.5c1.2-2.2,2.5-4.1,4-6c4.5-5.5,9.5-10.8,16-14
	L31.3,11.3L31.3,11.3L31.3,11.3z"/>
</svg>
