<?xml version="1.0" encoding="UTF-8"?>
<svg id="cerrar" xmlns="http://www.w3.org/2000/svg" viewBox="0 0 40.93 40.93">
  <defs>
    <style>
      .cls-1 {
        fill: #fff;
      }

      .cls-2 {
        fill: #6ebb92;
        opacity: .74;
      }
    </style>
  </defs>
  <circle class="cls-2" cx="20.47" cy="20.47" r="20.47"/>
  <path class="cls-1" d="m11.26,9.65c4.4,2.14,7.96,5.27,11.31,8.7,3.31,3.46,6.36,7.08,8.67,11.34,0,0-1.55,1.55-1.55,1.55-2.18-1.16-4.13-2.54-6.01-4-5.55-4.51-10.79-9.48-14.04-15.98,0,0,1.61-1.61,1.61-1.61h0Z"/>
  <path class="cls-1" d="m31.28,11.26c-2.14,4.4-5.27,7.96-8.7,11.31-3.46,3.31-7.08,6.36-11.34,8.67,0,0-1.55-1.55-1.55-1.55,1.16-2.18,2.54-4.13,4-6.01,4.51-5.55,9.48-10.79,15.98-14.04,0,0,1.61,1.61,1.61,1.61h0Z"/>
</svg>