<?xml version="1.0" encoding="UTF-8"?>
<svg id="Capa_1" data-name="Capa 1" xmlns="http://www.w3.org/2000/svg" viewBox="0 0 41.01 41.01">
  <defs>
    <style>
      .cls-1 {
        fill: #fff;
      }

      .cls-2 {
        fill: #6fbc92;
        fill-rule: evenodd;
      }
    </style>
  </defs>
  <circle class="cls-1" cx="20.51" cy="20.51" r="20.51"/>
  <path class="cls-2" d="m14.47,7.44h12.06c3.87,0,7.06,3.19,7.06,7.06v12c0,3.87-3.19,7.06-7.06,7.06h-12.06c-3.87,0-7.06-3.19-7.06-7.06v-12c0-3.87,3.19-7.06,7.06-7.06h0Zm13.06,4.56h0c.81,0,1.5.69,1.5,1.5h0c0,.81-.69,1.5-1.5,1.5h0c-.88,0-1.5-.69-1.5-1.5h0c0-.81.62-1.5,1.5-1.5h0Zm-7.06,1.37h.06c3.88,0,7.12,3.25,7.12,7.12h0c0,3.94-3.25,7.12-7.12,7.12h-.06c-3.87,0-7.06-3.19-7.06-7.12h0c0-3.87,3.19-7.12,7.06-7.12h0Zm0,2.44h.06c2.56,0,4.69,2.13,4.69,4.69h0c0,2.62-2.12,4.75-4.69,4.75h-.06c-2.56,0-4.69-2.13-4.69-4.75h0c0-2.56,2.13-4.69,4.69-4.69h0Zm-5.94-6.12h11.94c2.69,0,4.87,2.19,4.87,4.87v11.87c0,2.69-2.19,4.87-4.87,4.87h-11.94c-2.69,0-4.87-2.19-4.87-4.87v-11.87c0-2.69,2.19-4.87,4.87-4.87h0Z"/>
</svg>