<?xml version="1.0" encoding="UTF-8"?>
<svg id="Capa_1" data-name="Capa 1" xmlns="http://www.w3.org/2000/svg" viewBox="0 0 41.01 41.01">
  <defs>
    <style>
      .cls-1 {
        fill: #fff;
      }

      .cls-2 {
        fill: #6fbc92;
        fill-rule: evenodd;
      }
    </style>
  </defs>
  <circle class="cls-1" cx="20.51" cy="20.51" r="20.51"/>
  <path class="cls-2" d="m9.1,16.39h4.62v15.51h-4.62v-15.51Zm2.28-7.87c1.54,0,2.79,1.25,2.79,2.79s-1.25,2.79-2.79,2.79-2.74-1.25-2.74-2.79,1.2-2.79,2.74-2.79h0Zm5.07,7.87h4.56v2.17c.97-1.43,2.57-2.34,4.39-2.34h1.25c2.91,0,5.25,2.39,5.25,5.25v10.43h-4.56v-1.43h0v-6.96h0c-.06-1.77-1.25-3.14-3.02-3.14h0c-1.77,0-3.25,1.37-3.31,3.14h0v8.38h-4.56v-15.51Z"/>
</svg>